<svg width="1058" height="147" viewBox="0 0 1058 147" fill="none" xmlns="http://www.w3.org/2000/svg">
<path d="M0.0384407 145H-0.959619V145.998H0.0384407V145ZM0.0384407 6.81818V5.82012H-0.959619V6.81818H0.0384407ZM78.5754 12.7557L78.0944 13.6302L78.0967 13.6315L78.5754 12.7557ZM94.971 29.0838L94.09 29.5529L94.0937 29.5597L94.971 29.0838ZM94.971 76.179L95.8483 76.6549L94.971 76.179ZM78.4404 92.4396L78.9126 93.3189L78.9168 93.3167L78.4404 92.4396ZM17.1762 98.3097H16.1782V99.3077H17.1762V98.3097ZM17.1762 77.7308V76.7328H16.1782V77.7308H17.1762ZM63.3943 74.4922L63.8722 75.3684L63.3943 74.4922ZM72.1656 65.5859L71.2771 65.1311L71.2729 65.1396L72.1656 65.5859ZM72.1656 39.6094L71.275 40.06L71.2794 40.0685L72.1656 39.6094ZM63.3268 30.9055L62.8566 31.786L62.8685 31.7922L63.3268 30.9055ZM25.0704 27.7344V26.7363H24.0723V27.7344H25.0704ZM25.0704 145V145.998H26.0685V145H25.0704ZM1.0365 145V6.81818H-0.959619V145H1.0365ZM0.0384407 7.81624H51.8566V5.82012H0.0384407V7.81624ZM51.8566 7.81624C62.3518 7.81624 71.0817 9.77321 78.0944 13.6302L79.0564 11.8812C71.6751 7.82148 62.5925 5.82012 51.8566 5.82012V7.81624ZM78.0967 13.6315C85.177 17.5015 90.498 22.8068 94.09 29.5529L95.8519 28.6147C92.0671 21.5066 86.4576 15.9266 79.0541 11.8799L78.0967 13.6315ZM94.0937 29.5597C97.7387 36.2788 99.5731 43.9385 99.5731 52.5639H101.569C101.569 43.6467 99.6701 35.653 95.8483 28.6079L94.0937 29.5597ZM99.5731 52.5639C99.5731 61.2812 97.7379 68.9854 94.0937 75.7031L95.8483 76.6549C99.6709 69.6083 101.569 61.5692 101.569 52.5639H99.5731ZM94.0937 75.7031C90.4578 82.4053 85.0919 87.6907 77.964 91.5626L78.9168 93.3167C86.3628 89.2719 92.0173 83.7169 95.8483 76.6549L94.0937 75.7031ZM77.9682 91.5603C70.8624 95.3764 62.0613 97.3116 51.5193 97.3116V99.3077C62.2983 99.3077 71.4446 97.3295 78.9126 93.3189L77.9682 91.5603ZM51.5193 97.3116H17.1762V99.3077H51.5193V97.3116ZM18.1743 98.3097V77.7308H16.1782V98.3097H18.1743ZM17.1762 78.7289H48.1457V76.7328H17.1762V78.7289ZM48.1457 78.7289C54.4602 78.7289 59.7224 77.6319 63.8722 75.3684L62.9163 73.616C59.1494 75.6707 54.2459 76.7328 48.1457 76.7328V78.7289ZM63.8722 75.3684C67.9967 73.1186 71.0717 70.0055 73.0583 66.0323L71.2729 65.1396C69.4811 68.7232 66.7085 71.5475 62.9163 73.616L63.8722 75.3684ZM73.054 66.0407C75.0707 62.1012 76.0649 57.6004 76.0649 52.5639H74.0688C74.0688 57.3333 73.1289 61.5139 71.2772 65.1311L73.054 66.0407ZM76.0649 52.5639C76.0649 47.5278 75.0708 43.0474 73.0518 39.1503L71.2794 40.0685C73.1287 43.6382 74.0688 47.7942 74.0688 52.5639H76.0649ZM73.0561 39.1587C71.0648 35.2235 67.9595 32.1765 63.7851 30.0189L62.8685 31.7922C66.7007 33.7728 69.488 36.5284 71.275 40.06L73.0561 39.1587ZM63.797 30.0252C59.6483 27.8094 54.3661 26.7363 48.0107 26.7363V28.7324C54.1601 28.7324 59.0886 29.7734 62.8566 31.7859L63.797 30.0252ZM48.0107 26.7363H25.0704V28.7324H48.0107V26.7363ZM24.0723 27.7344V145H26.0685V27.7344H24.0723ZM25.0704 144.002H0.0384407V145.998H25.0704V144.002ZM237.42 114.165L236.537 113.701L236.536 113.703L237.42 114.165ZM214.75 138.455L214.245 137.594L214.243 137.596L214.75 138.455ZM149.775 138.455L149.265 139.313L149.27 139.316L149.775 138.455ZM127.104 114.098L126.219 114.559L126.222 114.564L127.104 114.098ZM127.104 37.7202L126.221 37.2559L126.22 37.2573L127.104 37.7202ZM149.775 13.3629L149.27 12.5021L149.268 12.5032L149.775 13.3629ZM214.75 13.3629L214.243 14.2227L214.245 14.2237L214.75 13.3629ZM237.42 37.7202L236.535 38.1815L236.538 38.1859L237.42 37.7202ZM215.695 49.3927L214.783 49.8002L214.786 49.807L215.695 49.3927ZM202.2 32.9972L201.657 33.8346L201.662 33.8376L202.2 32.9972ZM162.392 32.9972L162.93 33.8376L162.935 33.8346L162.392 32.9972ZM148.83 49.3927L147.921 48.9806L147.92 48.9832L148.83 49.3927ZM148.83 102.493L147.919 102.9L147.922 102.907L148.83 102.493ZM162.392 118.888L161.849 119.726L161.854 119.729L162.392 118.888ZM202.2 118.888L202.739 119.729L202.743 119.726L202.2 118.888ZM215.695 102.493L214.786 102.081L214.784 102.083L215.695 102.493ZM244.789 75.9091C244.789 90.6745 242.023 103.259 236.537 113.701L238.304 114.63C243.973 103.84 246.785 90.9212 246.785 75.9091H244.789ZM236.536 113.703C231.083 124.12 223.653 132.073 214.245 137.594L215.255 139.316C225.009 133.592 232.692 125.352 238.305 114.628L236.536 113.703ZM214.243 137.596C204.875 143.119 194.235 145.891 182.296 145.891V147.887C194.557 147.887 205.553 145.036 215.257 139.315L214.243 137.596ZM182.296 145.891C170.357 145.891 159.694 143.119 150.28 137.594L149.27 139.316C159.017 145.036 170.035 147.887 182.296 147.887V145.891ZM150.285 137.597C140.919 132.031 133.486 124.053 127.987 113.632L126.222 114.564C131.878 125.284 139.559 133.544 149.265 139.313L150.285 137.597ZM127.989 113.637C122.547 103.194 119.803 90.6301 119.803 75.9091H117.807C117.807 90.8756 120.597 103.771 126.219 114.559L127.989 113.637ZM119.803 75.9091C119.803 61.1424 122.547 48.5796 127.989 38.183L126.22 37.2573C120.596 48.0018 117.807 60.8984 117.807 75.9091H119.803ZM127.988 38.1844C133.487 27.719 140.919 19.7432 150.282 14.2227L149.268 12.5032C139.559 18.2279 131.877 26.4903 126.221 37.2559L127.988 38.1844ZM150.28 14.2237C159.694 8.69888 170.357 5.92703 182.296 5.92703V3.93091C170.035 3.93091 159.017 6.78169 149.27 12.5021L150.28 14.2237ZM182.296 5.92703C194.235 5.92703 204.875 8.69889 214.243 14.2227L215.257 12.5032C205.553 6.78168 194.557 3.93091 182.296 3.93091V5.92703ZM214.245 14.2237C223.652 19.7441 231.082 27.7187 236.535 38.1814L238.305 37.2589C232.693 26.4906 225.01 18.227 215.255 12.5021L214.245 14.2237ZM236.538 38.1859C242.023 48.5819 244.789 61.1435 244.789 75.9091H246.785C246.785 60.8972 243.973 47.9996 238.303 37.2544L236.538 38.1859ZM221.618 75.9091C221.618 65.3298 219.961 56.3405 216.603 48.9785L214.786 49.807C217.995 56.839 219.622 65.5272 219.622 75.9091H221.618ZM216.606 48.9853C213.301 41.5949 208.685 35.9661 202.739 32.1568L201.662 33.8376C207.231 37.4051 211.611 42.7067 214.783 49.8002L216.606 48.9853ZM202.743 32.1597C196.809 28.3116 189.982 26.399 182.296 26.399V28.3951C189.634 28.3951 196.077 30.2159 201.657 33.8346L202.743 32.1597ZM182.296 26.399C174.611 26.399 167.783 28.3116 161.849 32.1597L162.935 33.8346C168.516 30.2159 174.958 28.3951 182.296 28.3951V26.399ZM161.854 32.1568C155.909 35.9652 151.271 41.5923 147.921 48.9806L149.739 49.8049C152.956 42.7093 157.36 37.406 162.93 33.8376L161.854 32.1568ZM147.92 48.9832C144.608 56.3438 142.974 65.3313 142.974 75.9091H144.97C144.97 65.5257 146.575 56.8356 149.74 49.8023L147.92 48.9832ZM142.974 75.9091C142.974 86.4872 144.608 95.4961 147.919 102.9L149.741 102.085C146.575 95.0058 144.97 86.2922 144.97 75.9091H142.974ZM147.922 102.907C151.272 110.25 155.909 115.874 161.849 119.726L162.935 118.051C157.36 114.436 152.955 109.13 149.738 102.079L147.922 102.907ZM161.854 119.729C167.788 123.53 174.613 125.419 182.296 125.419V123.423C174.956 123.423 168.512 121.624 162.93 118.048L161.854 119.729ZM182.296 125.419C189.979 125.419 196.805 123.53 202.739 119.729L201.662 118.048C196.081 121.624 189.637 123.423 182.296 123.423V125.419ZM202.743 119.726C208.685 115.873 213.299 110.247 216.605 102.902L214.784 102.083C211.612 109.132 207.231 114.437 201.657 118.051L202.743 119.726ZM216.604 102.905C219.961 95.4994 221.618 86.4887 221.618 75.9091H219.622C219.622 86.2906 217.995 95.0025 214.786 102.081L216.604 102.905ZM269.453 145H268.454V145.998H269.453V145ZM269.453 6.81818V5.82012H268.454V6.81818H269.453ZM347.989 12.3508L347.534 13.2391L347.536 13.2402L347.989 12.3508ZM364.385 27.8693L363.512 28.353L363.516 28.36L364.385 27.8693ZM364.318 74.0874L363.454 73.5871L363.453 73.589L364.318 74.0874ZM347.787 89.1335L348.22 90.0328L348.224 90.0306L347.787 89.1335ZM284.026 94.3963H283.028V95.3944H284.026V94.3963ZM284.026 73.6151V72.617H283.028V73.6151H284.026ZM332.808 71.0511L333.204 71.9675L333.213 71.9636L332.808 71.0511ZM341.58 63.4268L340.714 62.9304L340.712 62.9342L341.58 63.4268ZM341.58 38.4624L340.706 38.9442L340.708 38.949L341.58 38.4624ZM332.741 30.5007L332.319 31.4054L332.328 31.4093L332.741 30.5007ZM294.484 27.7344V26.7363H293.486V27.7344H294.484ZM294.484 145V145.998H295.483V145H294.484ZM340.837 82.3864L341.713 81.9078L341.429 81.3883H340.837V82.3864ZM375.046 145V145.998H376.728L375.921 144.521L375.046 145ZM347.112 145L346.233 145.472L346.515 145.998H347.112V145ZM313.511 82.3864V81.3883H311.843L312.632 82.8583L313.511 82.3864ZM270.451 145V6.81818H268.454V145H270.451ZM269.453 7.81624H321.271V5.82012H269.453V7.81624ZM321.271 7.81624C331.776 7.81624 340.515 9.64179 347.534 13.2391L348.445 11.4626C341.07 7.68301 331.997 5.82012 321.271 5.82012V7.81624ZM347.536 13.2402C354.614 16.8448 359.927 21.8819 363.512 28.353L365.258 27.3856C361.466 20.5423 355.849 15.2338 348.442 11.4615L347.536 13.2402ZM363.516 28.36C367.152 34.7999 368.987 42.3398 368.987 51.0121H370.983C370.983 42.0518 369.085 34.1631 365.254 27.3786L363.516 28.36ZM368.987 51.0121C368.987 59.7287 367.13 67.2416 363.454 73.5871L365.181 74.5877C369.062 67.8886 370.983 60.0179 370.983 51.0121H368.987ZM363.453 73.589C359.827 79.879 354.473 84.7625 347.35 88.2364L348.224 90.0306C355.675 86.3975 361.341 81.2502 365.182 74.5858L363.453 73.589ZM347.354 88.2343C340.238 91.6607 331.444 93.3982 320.933 93.3982V95.3944C331.654 95.3944 340.763 93.6234 348.22 90.0328L347.354 88.2343ZM320.933 93.3982H284.026V95.3944H320.933V93.3982ZM285.024 94.3963V73.6151H283.028V94.3963H285.024ZM284.026 74.6131H317.56V72.617H284.026V74.6131ZM317.56 74.6131C323.848 74.6131 329.078 73.7489 333.204 71.9674L332.413 70.1348C328.622 71.7719 323.686 72.617 317.56 72.617V74.6131ZM333.213 71.9636C337.34 70.1346 340.439 67.4581 342.448 63.9195L340.712 62.9342C338.942 66.0528 336.194 68.4592 332.404 70.1387L333.213 71.9636ZM342.445 63.9233C344.486 60.364 345.479 56.0444 345.479 51.0121H343.483C343.483 55.7856 342.542 59.7425 340.714 62.9304L342.445 63.9233ZM345.479 51.0121C345.479 45.9785 344.486 41.6192 342.451 37.9757L340.708 38.949C342.542 42.2326 343.483 46.2398 343.483 51.0121H345.479ZM342.454 37.9805C340.407 34.2675 337.29 31.4722 333.154 29.5921L332.328 31.4093C336.108 33.1277 338.884 35.6402 340.706 38.9442L342.454 37.9805ZM333.162 29.596C329.028 27.6697 323.764 26.7363 317.425 26.7363V28.7324C323.59 28.7324 328.537 29.6433 332.319 31.4054L333.162 29.596ZM317.425 26.7363H294.484V28.7324H317.425V26.7363ZM293.486 27.7344V145H295.483V27.7344H293.486ZM294.484 144.002H269.453V145.998H294.484V144.002ZM339.962 82.8649L374.17 145.479L375.921 144.521L341.713 81.9078L339.962 82.8649ZM375.046 144.002H347.112V145.998H375.046V144.002ZM347.992 144.528L314.391 81.9144L312.632 82.8583L346.233 145.472L347.992 144.528ZM313.511 83.3844H340.837V81.3883H313.511V83.3844ZM386.954 27.8018H385.956V28.7999H386.954V27.8018ZM386.954 6.81818V5.82012H385.956V6.81818H386.954ZM497.203 6.81818H498.201V5.82012H497.203V6.81818ZM497.203 27.8018V28.7999H498.201V27.8018H497.203ZM454.493 27.8018V26.8038H453.495V27.8018H454.493ZM454.493 145V145.998H455.491V145H454.493ZM429.664 145H428.666V145.998H429.664V145ZM429.664 27.8018H430.662V26.8038H429.664V27.8018ZM387.952 27.8018V6.81818H385.956V27.8018H387.952ZM386.954 7.81624H497.203V5.82012H386.954V7.81624ZM496.205 6.81818V27.8018H498.201V6.81818H496.205ZM497.203 26.8038H454.493V28.7999H497.203V26.8038ZM453.495 27.8018V145H455.491V27.8018H453.495ZM454.493 144.002H429.664V145.998H454.493V144.002ZM430.662 145V27.8018H428.666V145H430.662ZM429.664 26.8038H386.954V28.7999H429.664V26.8038ZM518.456 145H517.458V145.998H518.456V145ZM518.456 6.81818V5.82012H517.458V6.81818H518.456ZM606.979 6.81818H607.977V5.82012H606.979V6.81818ZM606.979 27.8018V28.7999H607.977V27.8018H606.979ZM543.488 27.8018V26.8038H542.49V27.8018H543.488ZM543.488 65.316H542.49V66.3141H543.488V65.316ZM600.907 65.316H601.905V64.318H600.907V65.316ZM600.907 86.2997V87.2978H601.905V86.2997H600.907ZM543.488 86.2997V85.3017H542.49V86.2997H543.488ZM543.488 145V145.998H544.486V145H543.488ZM519.454 145V6.81818H517.458V145H519.454ZM518.456 7.81624H606.979V5.82012H518.456V7.81624ZM605.981 6.81818V27.8018H607.977V6.81818H605.981ZM606.979 26.8038H543.488V28.7999H606.979V26.8038ZM542.49 27.8018V65.316H544.486V27.8018H542.49ZM543.488 66.3141H600.907V64.318H543.488V66.3141ZM599.909 65.316V86.2997H601.905V65.316H599.909ZM600.907 85.3017H543.488V87.2978H600.907V85.3017ZM542.49 86.2997V145H544.486V86.2997H542.49ZM543.488 144.002H518.456V145.998H543.488V144.002ZM744.891 114.165L744.008 113.701L744.007 113.703L744.891 114.165ZM722.221 138.455L721.715 137.594L721.714 137.596L722.221 138.455ZM657.245 138.455L656.736 139.313L656.74 139.316L657.245 138.455ZM634.575 114.098L633.69 114.559L633.692 114.564L634.575 114.098ZM634.575 37.7202L633.691 37.2559L633.691 37.2573L634.575 37.7202ZM657.245 13.3629L656.74 12.5021L656.739 12.5032L657.245 13.3629ZM722.221 13.3629L721.714 14.2227L721.715 14.2237L722.221 13.3629ZM744.891 37.7202L744.006 38.1815L744.008 38.1859L744.891 37.7202ZM723.165 49.3927L722.254 49.8002L722.257 49.807L723.165 49.3927ZM709.671 32.9972L709.128 33.8346L709.133 33.8376L709.671 32.9972ZM669.863 32.9972L670.401 33.8376L670.406 33.8346L669.863 32.9972ZM656.301 49.3927L655.392 48.9806L655.391 48.9832L656.301 49.3927ZM656.301 102.493L655.39 102.9L655.393 102.907L656.301 102.493ZM669.863 118.888L669.32 119.726L669.324 119.729L669.863 118.888ZM709.671 118.888L710.209 119.729L710.214 119.726L709.671 118.888ZM723.165 102.493L722.256 102.081L722.255 102.083L723.165 102.493ZM752.26 75.9091C752.26 90.6745 749.494 103.259 744.008 113.701L745.775 114.63C751.443 103.84 754.256 90.9212 754.256 75.9091H752.26ZM744.007 113.703C738.554 124.12 731.123 132.073 721.715 137.594L722.726 139.316C732.48 133.592 740.163 125.352 745.775 114.628L744.007 113.703ZM721.714 137.596C712.345 143.119 701.706 145.891 689.767 145.891V147.887C702.028 147.887 713.024 145.036 722.728 139.315L721.714 137.596ZM689.767 145.891C677.828 145.891 667.165 143.119 657.751 137.594L656.74 139.316C666.488 145.036 677.506 147.887 689.767 147.887V145.891ZM657.755 137.597C648.39 132.031 640.956 124.053 635.458 113.632L633.692 114.564C639.349 125.284 647.029 133.544 656.736 139.313L657.755 137.597ZM635.46 113.637C630.017 103.194 627.274 90.6301 627.274 75.9091H625.278C625.278 90.8756 628.067 103.771 633.69 114.559L635.46 113.637ZM627.274 75.9091C627.274 61.1424 630.018 48.5796 635.459 38.183L633.691 37.2573C628.067 48.0018 625.278 60.8984 625.278 75.9091H627.274ZM635.459 38.1844C640.957 27.719 648.39 19.7432 657.752 14.2227L656.739 12.5032C647.029 18.2279 639.348 26.4903 633.691 37.2559L635.459 38.1844ZM657.751 14.2237C667.165 8.69888 677.828 5.92703 689.767 5.92703V3.93091C677.506 3.93091 666.488 6.78169 656.74 12.5021L657.751 14.2237ZM689.767 5.92703C701.706 5.92703 712.345 8.69889 721.714 14.2227L722.728 12.5032C713.024 6.78168 702.028 3.93091 689.767 3.93091V5.92703ZM721.715 14.2237C731.122 19.7441 738.553 27.7187 744.006 38.1814L745.776 37.2589C740.164 26.4906 732.481 18.227 722.726 12.5021L721.715 14.2237ZM744.008 38.1859C749.494 48.5819 752.26 61.1435 752.26 75.9091H754.256C754.256 60.8972 751.444 47.9996 745.774 37.2544L744.008 38.1859ZM729.089 75.9091C729.089 65.3298 727.432 56.3405 724.073 48.9785L722.257 49.807C725.466 56.839 727.093 65.5272 727.093 75.9091H729.089ZM724.076 48.9853C720.771 41.5949 716.156 35.9661 710.209 32.1568L709.133 33.8376C714.701 37.4051 719.082 42.7067 722.254 49.8002L724.076 48.9853ZM710.214 32.1597C704.279 28.3116 697.452 26.399 689.767 26.399V28.3951C697.105 28.3951 703.547 30.2159 709.128 33.8346L710.214 32.1597ZM689.767 26.399C682.081 26.399 675.254 28.3116 669.32 32.1597L670.406 33.8346C675.986 30.2159 682.429 28.3951 689.767 28.3951V26.399ZM669.324 32.1568C663.379 35.9652 658.742 41.5923 655.392 48.9806L657.21 49.8049C660.427 42.7093 664.831 37.406 670.401 33.8376L669.324 32.1568ZM655.391 48.9832C652.078 56.3438 650.445 65.3313 650.445 75.9091H652.441C652.441 65.5257 654.046 56.8356 657.211 49.8023L655.391 48.9832ZM650.445 75.9091C650.445 86.4872 652.079 95.4961 655.39 102.9L657.212 102.085C654.046 95.0058 652.441 86.2922 652.441 75.9091H650.445ZM655.393 102.907C658.743 110.25 663.379 115.874 669.32 119.726L670.406 118.051C664.831 114.436 660.426 109.13 657.209 102.079L655.393 102.907ZM669.324 119.729C675.258 123.53 682.084 125.419 689.767 125.419V123.423C682.426 123.423 675.982 121.624 670.401 118.048L669.324 119.729ZM689.767 125.419C697.45 125.419 704.275 123.53 710.209 119.729L709.133 118.048C703.551 121.624 697.107 123.423 689.767 123.423V125.419ZM710.214 119.726C716.156 115.873 720.77 110.247 724.075 102.902L722.255 102.083C719.083 109.132 714.701 114.437 709.128 118.051L710.214 119.726ZM724.074 102.905C727.432 95.4994 729.089 86.4887 729.089 75.9091H727.093C727.093 86.2906 725.466 95.0025 722.256 102.081L724.074 102.905ZM776.923 145H775.925V145.998H776.923V145ZM776.923 6.81818V5.82012H775.925V6.81818H776.923ZM801.955 6.81818H802.953V5.82012H801.955V6.81818ZM801.955 124.016H800.957V125.014H801.955V124.016ZM862.815 124.016H863.813V123.018H862.815V124.016ZM862.815 145V145.998H863.813V145H862.815ZM777.921 145V6.81818H775.925V145H777.921ZM776.923 7.81624H801.955V5.82012H776.923V7.81624ZM800.957 6.81818V124.016H802.953V6.81818H800.957ZM801.955 125.014H862.815V123.018H801.955V125.014ZM861.816 124.016V145H863.813V124.016H861.816ZM862.815 144.002H776.923V145.998H862.815V144.002ZM883.461 145H882.463V145.998H883.461V145ZM883.461 41.3636V40.3656H882.463V41.3636H883.461ZM907.886 41.3636H908.884V40.3656H907.886V41.3636ZM907.886 145V145.998H908.884V145H907.886ZM885.755 22.8089L885.073 23.5378L885.079 23.5437L885.755 22.8089ZM885.755 4.05184L886.43 4.7866L886.437 4.78069L885.755 4.05184ZM905.727 4.05184L905.039 4.77514L905.045 4.78091L905.051 4.78658L905.727 4.05184ZM905.727 22.8089L906.408 23.5382L906.408 23.5378L905.727 22.8089ZM884.459 145V41.3636H882.463V145H884.459ZM883.461 42.3617H907.886V40.3656H883.461V42.3617ZM906.888 41.3636V145H908.884V41.3636H906.888ZM907.886 144.002H883.461V145.998H907.886V144.002ZM895.741 25.6568C892.117 25.6568 889.031 24.4649 886.43 22.0742L885.079 23.5437C888.057 26.2809 891.628 27.6529 895.741 27.6529V25.6568ZM886.437 22.0801C883.839 19.6497 882.57 16.783 882.57 13.4304H880.574C880.574 17.3647 882.093 20.7504 885.073 23.5378L886.437 22.0801ZM882.57 13.4304C882.57 10.0297 883.841 7.1673 886.43 4.78658L885.079 3.3171C882.091 6.06422 880.574 9.45422 880.574 13.4304H882.57ZM886.437 4.78069C889.038 2.34724 892.122 1.13655 895.741 1.13655V-0.85957C891.623 -0.85957 888.049 0.538635 885.073 3.32298L886.437 4.78069ZM895.741 1.13655C899.408 1.13655 902.487 2.34909 905.039 4.77514L906.414 3.32854C903.478 0.536781 899.901 -0.85957 895.741 -0.85957V1.13655ZM905.051 4.78658C907.641 7.1673 908.912 10.0297 908.912 13.4304H910.908C910.908 9.45422 909.39 6.06422 906.402 3.3171L905.051 4.78658ZM908.912 13.4304C908.912 16.783 907.643 19.6497 905.045 22.0801L906.408 23.5378C909.388 20.7504 910.908 17.3647 910.908 13.4304H908.912ZM905.045 22.0797C902.494 24.463 899.413 25.6568 895.741 25.6568V27.6529C899.895 27.6529 903.471 26.2827 906.408 23.5382L905.045 22.0797ZM1049.19 114.165L1048.3 113.701L1048.3 113.703L1049.19 114.165ZM1026.52 138.455L1026.01 137.594L1026.01 137.596L1026.52 138.455ZM961.542 138.455L961.032 139.313L961.037 139.316L961.542 138.455ZM938.872 114.098L937.987 114.559L937.989 114.564L938.872 114.098ZM938.872 37.7202L937.988 37.2559L937.988 37.2573L938.872 37.7202ZM961.542 13.3629L961.037 12.5021L961.035 12.5032L961.542 13.3629ZM1026.52 13.3629L1026.01 14.2227L1026.01 14.2237L1026.52 13.3629ZM1049.19 37.7202L1048.3 38.1815L1048.31 38.1859L1049.19 37.7202ZM1027.46 49.3927L1026.55 49.8002L1026.55 49.807L1027.46 49.3927ZM1013.97 32.9972L1013.42 33.8346L1013.43 33.8376L1013.97 32.9972ZM974.16 32.9972L974.698 33.8376L974.703 33.8346L974.16 32.9972ZM960.598 49.3927L959.689 48.9806L959.688 48.9832L960.598 49.3927ZM960.598 102.493L959.687 102.9L959.69 102.907L960.598 102.493ZM974.16 118.888L973.617 119.726L973.621 119.729L974.16 118.888ZM1013.97 118.888L1014.51 119.729L1014.51 119.726L1013.97 118.888ZM1027.46 102.493L1026.55 102.081L1026.55 102.083L1027.46 102.493ZM1056.56 75.9091C1056.56 90.6745 1053.79 103.259 1048.3 113.701L1050.07 114.63C1055.74 103.84 1058.55 90.9212 1058.55 75.9091H1056.56ZM1048.3 113.703C1042.85 124.12 1035.42 132.073 1026.01 137.594L1027.02 139.316C1036.78 133.592 1044.46 125.352 1050.07 114.628L1048.3 113.703ZM1026.01 137.596C1016.64 143.119 1006 145.891 994.064 145.891V147.887C1006.32 147.887 1017.32 145.036 1027.02 139.315L1026.01 137.596ZM994.064 145.891C982.125 145.891 971.462 143.119 962.047 137.594L961.037 139.316C970.785 145.036 981.802 147.887 994.064 147.887V145.891ZM962.052 137.597C952.687 132.031 945.253 124.053 939.755 113.632L937.989 114.564C943.646 125.284 951.326 133.544 961.032 139.313L962.052 137.597ZM939.757 113.637C934.314 103.194 931.571 90.6301 931.571 75.9091H929.575C929.575 90.8756 932.364 103.771 937.987 114.559L939.757 113.637ZM931.571 75.9091C931.571 61.1424 934.315 48.5796 939.756 38.183L937.988 37.2573C932.364 48.0018 929.575 60.8984 929.575 75.9091H931.571ZM939.755 38.1844C945.254 27.719 952.686 19.7432 962.049 14.2227L961.035 12.5032C951.326 18.2279 943.645 26.4903 937.988 37.2559L939.755 38.1844ZM962.047 14.2237C971.462 8.69888 982.125 5.92703 994.064 5.92703V3.93091C981.802 3.93091 970.785 6.78169 961.037 12.5021L962.047 14.2237ZM994.064 5.92703C1006 5.92703 1016.64 8.69889 1026.01 14.2227L1027.02 12.5032C1017.32 6.78168 1006.32 3.93091 994.064 3.93091V5.92703ZM1026.01 14.2237C1035.42 19.7441 1042.85 27.7187 1048.3 38.1814L1050.07 37.2589C1044.46 26.4906 1036.78 18.227 1027.02 12.5021L1026.01 14.2237ZM1048.31 38.1859C1053.79 48.5819 1056.56 61.1435 1056.56 75.9091H1058.55C1058.55 60.8972 1055.74 47.9996 1050.07 37.2544L1048.31 38.1859ZM1033.39 75.9091C1033.39 65.3298 1031.73 56.3405 1028.37 48.9785L1026.55 49.807C1029.76 56.839 1031.39 65.5272 1031.39 75.9091H1033.39ZM1028.37 48.9853C1025.07 41.5949 1020.45 35.9661 1014.51 32.1568L1013.43 33.8376C1019 37.4051 1023.38 42.7067 1026.55 49.8002L1028.37 48.9853ZM1014.51 32.1597C1008.58 28.3116 1001.75 26.399 994.064 26.399V28.3951C1001.4 28.3951 1007.84 30.2159 1013.42 33.8346L1014.51 32.1597ZM994.064 26.399C986.378 26.399 979.551 28.3116 973.617 32.1597L974.703 33.8346C980.283 30.2159 986.726 28.3951 994.064 28.3951V26.399ZM973.621 32.1568C967.676 35.9652 963.039 41.5923 959.689 48.9806L961.507 49.8049C964.724 42.7093 969.128 37.406 974.698 33.8376L973.621 32.1568ZM959.688 48.9832C956.375 56.3438 954.742 65.3313 954.742 75.9091H956.738C956.738 65.5257 958.343 56.8356 961.508 49.8023L959.688 48.9832ZM954.742 75.9091C954.742 86.4872 956.375 95.4961 959.687 102.9L961.509 102.085C958.343 95.0058 956.738 86.2922 956.738 75.9091H954.742ZM959.69 102.907C963.04 110.25 967.676 115.874 973.617 119.726L974.703 118.051C969.128 114.436 964.723 109.13 961.506 102.079L959.69 102.907ZM973.621 119.729C979.555 123.53 986.38 125.419 994.064 125.419V123.423C986.723 123.423 980.279 121.624 974.698 118.048L973.621 119.729ZM994.064 125.419C1001.75 125.419 1008.57 123.53 1014.51 119.729L1013.43 118.048C1007.85 121.624 1001.4 123.423 994.064 123.423V125.419ZM1014.51 119.726C1020.45 115.873 1025.07 110.247 1028.37 102.902L1026.55 102.083C1023.38 109.132 1019 114.437 1013.42 118.051L1014.51 119.726ZM1028.37 102.905C1031.73 95.4994 1033.39 86.4887 1033.39 75.9091H1031.39C1031.39 86.2906 1029.76 95.0025 1026.55 102.081L1028.37 102.905Z" fill="#516681"/>
</svg>
