<svg width="110" height="51" viewBox="0 0 110 51" fill="none" xmlns="http://www.w3.org/2000/svg">
<rect width="110" height="51" fill="#F5F5F5"/>
<g clip-path="url(#clip0_0_1)">
<rect width="1440" height="3757" transform="translate(-78 -40)" fill="#0F1626"/>
<g filter="url(#filter0_dd_0_1)">
<rect width="1440" height="130" transform="translate(-78 -40)" fill="#0F1626"/>
<path d="M109.981 23.5533C109.936 23.4026 109.846 23.282 109.711 23.1916C109.576 23.1012 109.425 23.0642 109.26 23.0788C109.095 23.0944 108.952 23.178 108.831 23.3267C108.499 23.9286 108.087 24.6355 107.591 25.4474C107.095 26.2593 106.546 27.1013 105.945 27.9726C105.434 28.694 104.862 29.3708 104.231 30.0018C103.599 30.6338 102.968 31.1832 102.336 31.649C101.704 32.1157 101.111 32.4764 100.554 32.7312C99.9964 32.9869 99.5229 33.0997 99.133 33.0695C98.5612 33.0404 98.1781 32.8965 97.9827 32.6417C97.7863 32.386 97.7192 32.0476 97.7795 31.6266C97.8388 31.2056 97.9895 30.7398 98.2306 30.2284C98.4708 29.7169 98.7567 29.1987 99.0882 28.6726C99.4188 28.1466 99.765 27.6342 100.126 27.1383C100.486 26.6414 100.817 26.2136 101.118 25.8529C101.991 24.6793 102.877 23.5455 103.78 22.4468C104.682 21.349 105.464 20.3203 106.125 19.3567C106.786 18.3941 107.275 17.5452 107.591 16.8082C107.907 16.0721 107.914 15.4771 107.614 15.0269C107.584 14.9977 107.493 14.9063 107.343 14.7566C107.193 14.6059 107.02 14.4561 106.825 14.3054C106.629 14.1547 106.479 13.9593 106.284 13.899C105.76 13.7376 105.41 14.1323 104.885 14.4182C104.358 14.7041 103.75 14.9977 103.058 15.2982C102.366 15.5986 101.652 15.8923 100.915 16.1781C100.178 16.464 99.5093 16.7042 98.9074 16.9006C98.3055 17.096 97.8398 17.2234 97.5092 17.2837C97.1776 17.344 97.0726 17.2837 97.1931 17.1038L99.0882 14.3521C99.3586 13.6909 99.4636 13.1269 99.4043 12.6602C99.344 12.1945 99.1933 11.8036 98.9531 11.4876C98.7119 11.1716 98.4037 10.9013 98.0284 10.6757C97.6521 10.4501 97.2846 10.2624 96.9229 10.1117C96.743 10.5921 96.3968 11.2241 95.8854 12.0058C95.3739 12.7886 94.8936 13.6073 94.4414 14.4639C93.9903 15.3215 93.6898 16.1334 93.5401 16.9006C93.4905 17.1534 93.4477 17.5248 93.5945 17.9322C93.6704 18.1432 93.7744 18.2998 93.8474 18.3951C93.2639 19.5346 92.5172 20.7967 91.5585 22.1026C89.8335 24.4498 87.99 26.1669 86.4566 27.3765C86.6462 26.9166 86.8261 26.4499 86.9768 25.9666C87.5631 24.0881 87.7508 22.3058 87.5408 20.6217C87.3901 19.5395 87.0449 18.6663 86.5033 18.0051C86.4732 17.5248 86.3905 17.0425 86.2553 16.5622C86.1202 16.0819 85.9014 15.6453 85.601 15.2534C85.3005 14.8635 84.9019 14.531 84.406 14.2607C83.9101 13.9904 83.3004 13.8105 82.5789 13.7191C81.2556 13.5693 79.9624 13.7123 78.6993 14.1479C77.4363 14.5845 76.2413 15.2233 75.1133 16.0644C73.9854 16.9064 72.9625 17.8992 72.0456 19.0417C71.1277 20.1851 70.3693 21.3869 69.7674 22.651C69.326 23.5766 68.9886 24.5101 68.7504 25.4523C68.2545 26.2632 67.7061 27.1033 67.1062 27.9735C66.5947 28.695 66.023 29.3718 65.3919 30.0028C64.7599 30.6348 64.1289 31.1842 63.4969 31.6499C62.8648 32.1167 62.2717 32.4774 61.7155 32.7321C61.1584 32.9879 60.6849 33.1007 60.2949 33.0705C59.7232 33.0413 59.3401 32.8974 59.1447 32.6427C58.9483 32.387 58.8812 32.0486 58.9415 31.6276C59.0008 31.2065 59.1515 30.7408 59.3926 30.2294C59.6328 29.7179 59.9187 29.1996 60.2502 28.6736C60.5808 28.1476 60.927 27.6352 61.2877 27.1393C61.6484 26.6424 61.979 26.2146 62.2805 25.8538C63.1526 24.6802 64.0394 23.5465 64.9417 22.4477C65.8441 21.35 66.6258 20.3212 67.287 19.3577C67.9482 18.3951 68.4373 17.5462 68.7533 16.8092C69.0693 16.0731 69.0761 15.478 68.7757 15.0279C68.7455 14.9987 68.6551 14.9073 68.5054 14.7575C68.3546 14.6068 68.1816 14.4571 67.9871 14.3064C67.7907 14.1557 67.641 13.9593 67.4455 13.8999C66.8621 13.7259 66.5723 14.1333 66.0473 14.4192C65.5203 14.705 64.9116 14.9987 64.2203 15.2991C63.528 15.5996 62.8143 15.8932 62.0772 16.1791C61.3402 16.465 60.6712 16.7051 60.0694 16.9015C59.4675 17.097 59.0017 17.2244 58.6712 17.2846C58.3396 17.3449 58.2346 17.2846 58.3551 17.1048L60.2502 14.353C60.5205 13.6919 60.6255 13.1279 60.5662 12.6612C60.5059 12.1954 60.3552 11.8046 60.1151 11.4885C59.8739 11.1725 59.5657 10.9022 59.1904 10.6766C58.8141 10.4511 58.4465 10.2634 58.0848 10.1127C57.9049 10.593 57.5578 11.225 57.0473 12.0068C56.5359 12.7895 56.0556 13.6082 55.6034 14.4649C55.1523 15.3225 54.8518 16.1344 54.7021 16.9015C54.5689 17.5802 54.7225 18.1277 55.1318 18.5594C53.8581 20.1521 52.3996 21.5911 50.9489 23.0185C50.2167 23.739 49.4777 24.4537 48.6959 25.1139C49.009 24.3759 49.2862 23.6311 49.5156 22.8775C49.7558 22.0364 49.9221 21.1341 50.0115 20.1715C50.101 19.2099 50.0261 18.2998 49.7859 17.4431C49.5448 16.5855 49.1092 15.8417 48.4781 15.2097C47.8461 14.5786 46.9292 14.1878 45.7264 14.037C44.9437 13.9466 44.1396 14.0079 43.3131 14.2179C42.4856 14.4279 41.6592 14.7362 40.8327 15.1416C40.0052 15.5481 39.2011 16.0371 38.4193 16.6079C37.6366 17.1796 36.9005 17.7815 36.2092 18.4126C36.6001 17.6609 36.991 16.9239 37.3819 16.2024C37.7727 15.48 38.1782 14.7303 38.6002 13.9476C39.0805 12.985 39.5929 11.9844 40.1336 10.9479C40.6752 9.91045 41.171 8.92644 41.6222 7.993C42.0734 7.06053 42.4711 6.22626 42.8182 5.48923C43.1634 4.7522 43.3967 4.20381 43.5173 3.8421C43.6981 3.36176 43.6534 2.86587 43.3821 2.35345C43.1118 1.842 42.7511 1.39862 42.2999 1.02232C41.8488 0.647 41.3675 0.361134 40.856 0.165694C40.3446 -0.0297455 39.9391 -0.0521074 39.6377 0.0976323C39.4267 0.880363 39.1564 1.73699 38.8258 2.66946C38.4942 3.60193 38.1111 4.5801 37.6755 5.60105C37.2389 6.62395 36.78 7.67018 36.2996 8.73684C35.8183 9.80543 35.3215 10.8643 34.811 11.9164C33.9087 13.7813 32.9908 15.6531 32.0593 17.5326C31.1414 19.3829 25.4581 28.2448 22.9281 31.5838C21.1769 33.8951 19.3596 33.8746 18.9279 33.0083C18.7694 32.6903 18.8491 32.2139 18.9279 31.6616C19.0066 31.1113 19.1642 30.4967 19.4004 29.819C19.7427 28.837 19.909 28.345 20.156 27.7635C22.1249 23.1323 21.8955 19.5871 21.8955 19.5871C21.8556 18.9785 21.8352 15.2952 19.5424 13.7988C17.5686 12.5105 15.1397 12.4755 13.7531 12.8061C12.3666 13.1367 11.0354 13.7035 9.75973 14.5077C8.48403 15.3108 7.28611 16.3026 6.16792 17.4849C5.04974 18.6663 4.06476 19.9119 3.21397 21.2187C2.36317 22.5265 1.6699 23.8411 1.13414 25.1645C0.598382 26.4878 0.25223 27.7013 0.0947114 28.8039C0.000394851 29.3708 -0.0239116 30.0796 0.0237328 30.9304C0.0704049 31.7812 0.266815 32.6009 0.613939 33.3875C0.96009 34.1751 1.50363 34.8606 2.24455 35.443C2.9845 36.0264 4.0317 36.3483 5.38714 36.4124C8.0212 36.4397 11.7248 35.0171 14.3073 31.1152C13.5762 35.3516 17.3128 36.9317 20.7218 35.9399C24.4508 34.8548 26.2836 30.6387 26.9147 29.7364C27.1072 29.4612 27.2783 29.1637 27.466 28.8827C26.9477 30.7311 26.6434 32.5649 26.5539 34.3832C26.5841 34.6233 26.7649 34.8946 27.0955 35.1951C27.4261 35.4955 27.7946 35.759 28.2011 35.9836C28.6065 36.2092 28.975 36.3677 29.3066 36.4572C29.6372 36.5476 29.8025 36.4873 29.8025 36.2773C29.8618 35.6754 29.9221 35.0813 29.9824 34.495C30.0417 33.9087 30.1467 33.3155 30.2984 32.7137C30.2984 32.8342 30.3285 32.9548 30.3888 33.0744C30.629 34.038 31.1404 34.8411 31.9232 35.4877C32.7049 36.1353 33.9077 36.4426 35.5315 36.4124C37.095 36.3833 38.6138 35.9768 40.0879 35.1951C41.9878 34.1868 43.2227 33.0423 44.125 32.1273C44.4741 31.7734 44.793 31.4224 45.0828 31.0811C46.6142 29.2745 48.3002 27.6079 50.0718 26.0357C51.0898 25.1324 52.1254 24.1552 53.1658 23.0982C54.4473 21.7973 55.6025 20.5128 56.6419 19.2711C56.7916 19.3013 56.9423 19.3159 57.093 19.3159H57.5442C57.9652 19.3159 58.326 19.3013 58.6264 19.2711C58.9269 19.242 59.2127 19.1885 59.484 19.1126C59.7543 19.0387 60.048 18.9629 60.364 18.8871C60.68 18.8122 61.0631 18.7441 61.5143 18.6838C61.6339 18.6547 61.6339 18.7597 61.5143 18.9998C61.3937 19.241 61.1982 19.5638 60.9279 19.9693C60.6576 20.3747 60.3261 20.8414 59.9352 21.3675C59.5443 21.8935 59.1525 22.4273 58.7625 22.9689C58.1607 23.7808 57.5821 24.5635 57.026 25.3142C56.4688 26.0658 55.9583 26.8252 55.4926 27.5924C55.0259 28.3586 54.6428 29.1481 54.3423 29.96C54.0419 30.7719 53.8756 31.6441 53.8464 32.5766C53.8163 33.5995 54.072 34.5008 54.6136 35.2826C55.1552 36.0653 55.9963 36.4854 57.1397 36.5456C58.2521 36.605 59.3343 36.4027 60.3873 35.937C61.4394 35.4702 62.4321 34.8616 63.3646 34.1099C64.2961 33.3583 65.1693 32.5153 65.9812 31.5838C66.7931 30.6513 67.5145 29.7344 68.1466 28.8321C68.2282 28.7115 68.3041 28.5861 68.3848 28.4646C68.4013 29.0392 68.4694 29.5993 68.5977 30.1399C69.0489 32.2751 69.9357 33.862 71.259 34.8995C72.5824 35.9379 74.1011 36.4717 75.8144 36.5009C77.9302 36.5369 79.5083 35.5762 80.4602 34.9899C82.754 33.579 84.0131 31.6587 84.6247 30.5288C86.198 29.6673 87.3706 28.7952 88.1504 28.1563C90.4315 26.2885 91.8735 24.3574 93.4963 22.156C94.3695 20.9717 95.0404 19.9586 95.4809 19.2692C95.6306 19.2993 95.7813 19.3139 95.932 19.3139H96.3832C96.8042 19.3139 97.165 19.2993 97.4654 19.2692C97.7659 19.24 98.0517 19.1865 98.323 19.1107C98.5933 19.0368 98.887 18.961 99.203 18.8851C99.519 18.8102 99.9021 18.7422 100.353 18.6819C100.473 18.6527 100.473 18.7577 100.353 18.9979C100.233 19.239 100.037 19.5619 99.7669 19.9673C99.4966 20.3728 99.165 20.8395 98.7742 21.3655C98.3833 21.8916 97.9914 22.4254 97.6015 22.967C96.9997 23.7789 96.4211 24.5616 95.8649 25.3123C95.3078 26.0639 94.7973 26.8233 94.3316 27.5904C93.8649 28.3566 93.4818 29.1462 93.1813 29.9581C92.8809 30.77 92.7146 31.6422 92.6854 32.5746C92.6553 33.5975 92.911 34.4989 93.4526 35.2806C93.9942 36.0634 94.8352 36.4834 95.9787 36.5437C97.091 36.603 98.1733 36.4008 99.2263 35.935C100.278 35.4683 101.271 34.8596 102.204 34.108C103.135 33.3564 104.008 32.5134 104.82 31.5819C105.632 30.6494 106.354 29.7325 106.986 28.8302C107.497 28.0785 107.978 27.2958 108.429 26.4849C108.881 25.673 109.362 24.8766 109.873 24.0949C109.988 23.8839 110.027 23.703 109.981 23.5533ZM14.602 27.1937C13.7696 28.3187 13.2242 28.9352 12.4988 29.7218C11.7579 30.5249 11.0257 31.226 10.3013 31.825C9.57596 32.4239 8.96144 32.7866 8.45777 32.9111C7.38626 33.1639 6.59867 33.1162 6.095 32.7691C5.59133 32.4229 5.25976 31.9271 5.10224 31.2804C4.94375 30.6348 4.91361 29.9338 5.00792 29.1773C5.10224 28.4208 5.22767 27.7752 5.38616 27.2404C5.60591 26.4528 5.91317 25.5942 6.30794 24.6647C6.70173 23.7361 7.16554 22.8056 7.70227 21.876C8.23803 20.9474 8.83601 20.05 9.49817 19.1826C10.1594 18.3173 10.8682 17.552 11.6247 16.8908C12.3811 16.2287 13.1765 15.7095 14.0118 15.3312C14.4804 15.1193 14.988 14.9199 15.69 14.8509C16.1791 14.8023 17.3508 14.6866 18.2414 15.3779C18.9104 15.8971 19.1272 16.6458 19.2176 16.9745C20.0159 19.8779 17.2555 23.6077 14.602 27.1937ZM45.6798 21.0943C45.2587 22.3427 44.6121 23.6816 43.74 25.109C42.8678 26.5374 41.8906 27.8539 40.8084 29.0557C39.7262 30.2595 38.6128 31.2522 37.4703 32.033C36.3269 32.8158 35.2894 33.16 34.3579 33.0705C33.6364 33.0413 33.0725 32.8304 32.666 32.4395C32.2606 32.0486 31.9669 31.5819 31.7861 31.0413C31.6052 30.4997 31.5226 29.9211 31.5381 29.3047C31.5527 28.6882 31.6208 28.1398 31.7413 27.6585C32.0719 26.7863 32.4327 25.9287 32.8235 25.0867C33.2144 24.2456 33.6199 23.388 34.0419 22.5158C34.6729 21.6747 35.4022 20.8852 36.2296 20.1482C37.0561 19.4121 37.9283 18.7723 38.8462 18.2307C39.7631 17.6891 40.68 17.2691 41.5979 16.9686C42.5148 16.6682 43.3646 16.5321 44.1464 16.5632C45.1985 16.6235 45.8227 17.0814 46.0181 17.939C46.2136 18.7937 46.0998 19.8468 45.6798 21.0943ZM79.9838 32.4395C78.8257 33.3117 77.6609 33.7181 76.4882 33.6578C75.4965 33.5985 74.7137 33.2961 74.143 32.7555C73.5712 32.2139 73.1881 31.5158 72.9927 30.6582C72.7972 29.8006 72.7671 28.8389 72.9032 27.7713C73.0384 26.7046 73.3155 25.6146 73.7375 24.5013C74.1585 23.389 74.6914 22.298 75.3389 21.2304C75.9855 20.1628 76.7148 19.2089 77.5267 18.3659C78.2783 17.6444 79.1058 17.0513 80.0081 16.5846C80.9104 16.1188 81.7233 15.865 82.4438 15.795C84.0093 15.6433 84.6996 16.7683 84.6996 16.7683C84.8338 17.0396 84.8844 17.2876 84.9048 17.4548C84.3972 17.5627 83.6534 17.8058 82.8473 18.2784C80.1277 19.872 76.5592 28.3673 82.1336 30.3888C81.4676 31.1677 80.7548 31.858 79.9838 32.4395ZM85.3073 24.8834C84.9067 25.8606 84.1143 27.2803 83.1672 28.8389C78.3425 27.2472 83.0836 18.8316 85.1226 19.2692C85.6389 19.38 85.9374 19.874 86.0667 20.0927C86.2972 20.4807 86.7143 21.453 85.3073 24.8834Z" fill="white"/>
<path d="M7.75755 42.3972C7.66615 42.3982 7.57669 42.4157 7.4921 42.4497C4.15602 43.7741 0.388214 46.6804 0.388214 46.6804C0.388214 46.6804 4.21922 49.2444 7.57475 50.5678C7.67393 50.6067 7.78963 50.6242 7.89756 50.6232C18.1956 50.5104 89.5067 49.7141 99.8047 49.5983C99.8699 49.5974 99.936 49.5935 99.9758 49.5925C99.968 49.0373 99.9612 48.5016 99.9535 47.9298C99.899 47.9357 99.8261 47.9512 99.7532 47.9522C90.0143 48.0621 19.2622 48.8526 9.52331 48.9605C9.43677 48.9615 9.35023 48.9654 9.2637 48.9576C8.64821 48.9012 8.30789 48.2225 8.63751 47.7004C8.82323 47.4057 9.11006 47.3163 9.44844 47.3124C19.1961 47.2064 89.9579 46.4149 99.7065 46.3089C99.7911 46.308 99.8757 46.342 99.9476 46.3566C99.9408 45.745 99.935 45.2092 99.9282 44.618C99.8669 44.6307 99.795 44.6579 99.7211 44.6589C89.9919 44.7697 19.2486 45.5593 9.51942 45.6682C9.42024 45.6691 9.32107 45.673 9.22286 45.6653C8.63362 45.6137 8.29039 44.971 8.57625 44.4537C8.75905 44.1222 9.05659 44.0269 9.41635 44.023C19.1767 43.917 89.951 43.1255 99.7114 43.0186C99.7823 43.0176 99.8533 43.0555 99.9136 43.072C99.9087 42.4517 99.9049 41.915 99.9 41.3724C99.8572 41.3714 99.8076 41.3685 99.759 41.3685C89.4308 41.4823 18.0876 42.2796 7.75755 42.3972ZM6.83188 48.1573C5.66897 47.8549 4.47202 47.2638 3.25661 46.5083C4.57509 45.7625 5.78954 45.1703 6.79591 44.8845L6.83188 48.1573Z" fill="white"/>
<path d="M107.358 44.4966C107.3 42.83 106.032 41.4512 104.369 41.3472C103.442 41.2898 102.506 41.388 101.595 41.4152C101.625 44.093 101.655 46.8263 101.685 49.5702C101.693 49.5712 101.717 49.577 101.741 49.576C102.568 49.5663 103.396 49.5741 104.223 49.542C105.982 49.4749 107.356 48.0543 107.376 46.2934C107.384 45.6945 107.378 45.0955 107.358 44.4966Z" fill="white"/>
</g>
</g>
<defs>
<filter id="filter0_dd_0_1" x="-96" y="-52" width="1476" height="166" filterUnits="userSpaceOnUse" color-interpolation-filters="sRGB">
<feFlood flood-opacity="0" result="BackgroundImageFix"/>
<feColorMatrix in="SourceAlpha" type="matrix" values="0 0 0 0 0 0 0 0 0 0 0 0 0 0 0 0 0 0 127 0" result="hardAlpha"/>
<feMorphology radius="2" operator="erode" in="SourceAlpha" result="effect1_dropShadow_0_1"/>
<feOffset dy="4"/>
<feGaussianBlur stdDeviation="5"/>
<feColorMatrix type="matrix" values="0 0 0 0 0.0504167 0 0 0 0 0.0769203 0 0 0 0 0.1375 0 0 0 1 0"/>
<feBlend mode="normal" in2="BackgroundImageFix" result="effect1_dropShadow_0_1"/>
<feColorMatrix in="SourceAlpha" type="matrix" values="0 0 0 0 0 0 0 0 0 0 0 0 0 0 0 0 0 0 127 0" result="hardAlpha"/>
<feMorphology radius="2" operator="erode" in="SourceAlpha" result="effect2_dropShadow_0_1"/>
<feOffset dy="6"/>
<feGaussianBlur stdDeviation="10"/>
<feColorMatrix type="matrix" values="0 0 0 0 0.0458333 0 0 0 0 0.0699275 0 0 0 0 0.125 0 0 0 1 0"/>
<feBlend mode="normal" in2="effect1_dropShadow_0_1" result="effect2_dropShadow_0_1"/>
<feBlend mode="normal" in="SourceGraphic" in2="effect2_dropShadow_0_1" result="shape"/>
</filter>
<clipPath id="clip0_0_1">
<rect width="1440" height="3757" fill="white" transform="translate(-78 -40)"/>
</clipPath>
</defs>
</svg>
